<svg role="img" xmlns="http://www.w3.org/2000/svg" xmlns:xlink="http://www.w3.org/1999/xlink" style="position: absolute; width: 0; height: 0;">
  <symbol viewBox="0 0 24 24" id="calendar">
    <title>Calendar icon</title>
    <path d="M0 0h24v24H0z" fill="none" />
    <path d="M19 3h-1V1h-2v2H8V1H6v2H5c-1.11 0-1.99.9-1.99 2L3 19c0 1.1.89 2 2 2h14c1.1 0 2-.9 2-2V5c0-1.1-.9-2-2-2zm0 16H5V8h14v11zM7 10h5v5H7z" />
  </symbol>

  <svg xmlns="http://www.w3.org/2000/svg" viewBox="0 0 24 24" id="dribbble">
    <title>Dribbble icon</title>
    <path d="M12 24a12 12 0 110-24 12 12 0 010 24zm10.1-10.4a15 15 0 00-6.4-.4c1.4 3.7 2 6.7 2 7.3 2.3-1.5 4-4 4.4-6.9zM16 21.4c-.1-.8-.7-4-2.2-7.7a14 14 0 00-8 6.4A10.2 10.2 0 0016 21.5zM4.4 19a16.3 16.3 0 018.7-7l-.8-1.7c-5.1 1.6-10 1.5-10.5 1.5v.3c0 2.6 1 5 2.6 6.9zM2 9.9c.4 0 4.6 0 9.4-1.2-1.7-3-3.5-5.6-3.8-6-2.8 1.4-5 4-5.6 7.2zm7.6-7.8c.3.3 2.1 2.9 3.8 6 3.7-1.4 5.2-3.5 5.4-3.8A10.2 10.2 0 009.6 2zm10.3 3.4c-.2.3-1.9 2.5-5.7 4l.7 1.6.2.5a24 24 0 017.2.3c0-2.4-1-4.6-2.4-6.4z"/>
  </svg>

  <svg xmlns="http://www.w3.org/2000/svg" viewBox="0 0 24 24" id="flickr">
    <title>Flickr icon</title>
    <path d="M0 12a5.6 5.6 0 1011.1 0A5.6 5.6 0 000 12zm12.9 0A5.6 5.6 0 1024 12a5.6 5.6 0 00-11.1 0z"/>
  </svg>

  <svg xmlns="http://www.w3.org/2000/svg" viewBox="0 0 24 24" id="facebook">
    <title>Facebook icon</title>
    <path d="M24 12a12 12 0 10-13.9 11.9v-8.4h-3V12h3V9.4c0-3 1.8-4.7 4.6-4.7l2.6.2v3h-1.5c-1.5 0-2 .9-2 1.8V12h3.4l-.5 3.5h-2.8v8.4A12 12 0 0024 12z"/>
  </svg>

  <svg xmlns="http://www.w3.org/2000/svg" viewBox="0 0 24 24" id="github">
    <title>GitHub icon</title>
    <path d="M12 .3a12 12 0 00-3.8 23.4c.6.1.8-.3.8-.6v-2c-3.3.7-4-1.6-4-1.6-.6-1.4-1.4-1.8-1.4-1.8-1-.7.1-.7.1-.7 1.2 0 1.9 1.2 1.9 1.2 1 1.8 2.8 1.3 3.5 1 0-.8.4-1.3.7-1.6-2.7-.3-5.5-1.3-5.5-6 0-1.2.5-2.3 1.3-3.1-.2-.4-.6-1.6 0-3.2 0 0 1-.3 3.4 1.2a11.5 11.5 0 016 0c2.3-1.5 3.3-1.2 3.3-1.2.6 1.6.2 2.8 0 3.2.9.8 1.3 1.9 1.3 3.2 0 4.6-2.8 5.6-5.5 5.9.5.4.9 1 .9 2.2v3.3c0 .3.1.7.8.6A12 12 0 0012 .3"/>
  </svg>

  <svg xmlns="http://www.w3.org/2000/svg" viewBox="0 0 24 24" id="instagram">
    <title>Instagram icon</title>
    <path d="M12 0C8.74 0 8.33.01 7.05.07a8.85 8.85 0 00-2.91.56c-.79.3-1.46.72-2.13 1.38S.94 3.35.63 4.14c-.3.77-.5 1.64-.56 2.91C.01 8.33 0 8.74 0 12s.01 3.67.07 4.95c.06 1.27.26 2.15.56 2.91.3.79.72 1.46 1.38 2.13a5.87 5.87 0 002.13 1.38c.77.3 1.64.5 2.91.56 1.28.06 1.69.07 4.95.07s3.67-.01 4.95-.07a8.88 8.88 0 002.91-.56 5.9 5.9 0 002.13-1.38 5.86 5.86 0 001.38-2.13c.3-.77.5-1.64.56-2.91.06-1.28.07-1.69.07-4.95s-.01-3.67-.07-4.95a8.87 8.87 0 00-.56-2.91 5.89 5.89 0 00-1.38-2.13A5.85 5.85 0 0019.86.63c-.77-.3-1.64-.5-2.91-.56A83.63 83.63 0 0012 0zm0 2.16c3.2 0 3.58.02 4.85.07 1.17.06 1.8.25 2.23.42.56.21.96.47 1.38.9.42.41.68.81.9 1.37.16.43.36 1.06.4 2.23.07 1.27.08 1.65.08 4.85s-.02 3.58-.08 4.85a6.75 6.75 0 01-.42 2.23c-.22.56-.48.96-.9 1.38-.41.42-.82.68-1.38.9-.42.16-1.06.36-2.23.4-1.27.07-1.65.08-4.86.08-3.21 0-3.59-.02-4.86-.08a6.8 6.8 0 01-2.23-.42 3.72 3.72 0 01-1.38-.9 3.64 3.64 0 01-.9-1.38 6.81 6.81 0 01-.42-2.23c-.05-1.26-.06-1.65-.06-4.84 0-3.2.01-3.6.06-4.87A6.8 6.8 0 012.6 4.9c.2-.57.48-.96.9-1.38.42-.42.8-.69 1.38-.9A6.64 6.64 0 017.1 2.2c1.27-.04 1.65-.06 4.86-.06l.04.03zm0 3.68a6.16 6.16 0 100 12.32 6.16 6.16 0 000-12.32zM12 16a4 4 0 110-8 4 4 0 010 8zm7.85-10.4a1.44 1.44 0 11-2.89 0 1.44 1.44 0 012.89 0z"/>
  </svg>

  <svg xmlns="http://www.w3.org/2000/svg" viewBox="0 0 24 24" id="keybase">
    <title>Keybase icon</title>
    <path d="M10.4 21.4a1 1 0 11-1-1c.6 0 1 .4 1 1m6 0a1 1 0 11-1-1c.5 0 1 .4 1 1m4.5-9.2l-.2-.2v-.2l-.2-.1-.4-.4-.1-.2-.2-.1c-1.2-1.2-2.5-2-4-2.6h-.2v-.1a4.1 4.1 0 00-2.5-5.4c-.7-.3-1.2-.4-1.7-.3 0-.1-.1-.6.5-1.9L10.7 0l-.3.4-1 1.3c-.3-.3-.7-.5-1.2-.6H6.8h-.1c-1 0-1.8.7-1.9 1.7v1.4c-.1 1 .6 2 1.7 2h1c0 .9 0 1.7.4 2.4C6.5 9 5.3 10 4.2 11 1 14.4 1 18 1 21v1.8l1.3-1.4c.3 1 .7 1.8 1.2 2.6H5a9.2 9.2 0 01-1.7-3.9l1.9-2-1 3.1L6 20a12 12 0 0111-1.5c1.8.5 3.5 0 4.4-1.2l.1-.2.2 1.5c0 1.5-.3 3.7-1.4 5.5h1.6c.8-1.6 1.2-3.4 1.2-5.5 0-2.2-.8-4.4-2.2-6.3zm-12-6c.1-1 .6-2 1.2-3l.1.2c.3.4.7.6 1.2.6l1.2.2c.8.2 1.3.7 1.6 1.4s.4 1.5.1 2.2c-.1.4-.4.8-.8 1l-.4-.4a1.5 1.5 0 00-2.6.8c-1.2-.5-1.8-1.6-1.6-3zm4.3 5.1l-.5.4h-.2-.1l-.2-.1v-.4l.6-.4-1-1.3a.3.3 0 010-.4.3.3 0 01.4 0l3 3.7a.3.3 0 01-.2.5l-.3-.1-.3-.4-1 .8-.2.1H13l-.5-.7v-.3l1.1-.9-.4-.5zM7.8 4.9l-1.2-.1a.5.5 0 01-.5-.5l.1-1.4c0-.2.2-.4.5-.4h1.4l.3.2.1.3v.1c-.3.6-.6 1.2-.7 1.8zm12.5 11.4c-.6.9-1.7 1.1-3 .8-3.8-1.2-7.3-1-10.4.7l1.6-5.2-5.3 5.7c.1-3.8 2.5-7 5.8-8.4a4.8 4.8 0 002.1 1c-.1.4 0 1 .3 1.4-.1.5 0 1 .2 1.5l.5.5a1.4 1.4 0 002 .2l.3-.2a1.4 1.4 0 00.9 0c.2 0 .4 0 .6-.2.6-.5.7-1.4.2-2L14.4 10l.4-.4a9 9 0 014 2.3v.1l.2.2.1.1.3.3.1.1.1.2.2.1v.2c1 1.1 1 2.3.5 3.1zM7.7 4.1H7v-.9h.9v1z"/>    
  </svg>

  <svg xmlns="http://www.w3.org/2000/svg" viewBox="0 0 24 24" id="linkedin">
    <title>LinkedIn icon</title>
    <path d="M20.4 20.5H17v-5.6c0-1.3 0-3-1.9-3-1.8 0-2 1.4-2 2.9v5.7H9.3V9h3.4v1.6c.5-1 1.6-1.9 3.4-1.9 3.6 0 4.2 2.4 4.2 5.5v6.3zm-15-13a2 2 0 110-4.2 2 2 0 010 4.1zm1.7 13H3.6V9H7v11.5zM22.2 0H1.8C.8 0 0 .8 0 1.7v20.6c0 1 .8 1.7 1.8 1.7h20.4c1 0 1.8-.8 1.8-1.7V1.7c0-1-.8-1.7-1.8-1.7z"/>
  </svg>

  <svg xmlns="http://www.w3.org/2000/svg" viewBox="0 0 24 24" id="mastodon">
    <title>Mastodon icon</title>
    <path d="M23.27 5.31c-.35-2.57-2.62-4.6-5.3-5C17.5.24 15.78 0 11.8 0h-.03C7.8 0 6.95.24 6.5.3 3.88.7 1.5 2.53.92 5.14a15.7 15.7 0 0 0-.26 4c.07 1.88.09 3.75.26 5.61.12 1.24.33 2.47.62 3.68.55 2.24 2.78 4.1 4.96 4.86a13.41 13.41 0 0 0 8.04.17c.59-.19 1.27-.4 1.78-.76a.06.06 0 0 0 .02-.04v-1.8a.05.05 0 0 0-.02-.05.05.05 0 0 0-.05 0 20.28 20.28 0 0 1-4.7.54c-2.73 0-3.47-1.29-3.68-1.82a5.6 5.6 0 0 1-.32-1.43.05.05 0 0 1 .07-.06c1.52.36 3.07.55 4.63.55l1.13-.01c1.57-.05 3.22-.13 4.76-.42l.11-.03c2.44-.46 4.76-1.92 5-5.6l.02-1.67c0-.51.17-3.63-.02-5.55zm-3.75 9.2h-2.56V8.29c0-1.3-.55-1.98-1.67-1.98-1.23 0-1.85.8-1.85 2.35v3.4H10.9v-3.4c0-1.56-.62-2.35-1.85-2.35-1.11 0-1.67.67-1.67 1.98v6.22H4.82V8.1a4.6 4.6 0 0 1 1.01-3.13 3.53 3.53 0 0 1 2.74-1.16c1.31 0 2.3.5 2.97 1.5l.63 1.06.64-1.06c.66-1 1.65-1.5 2.96-1.5 1.13 0 2.04.4 2.74 1.16a4.57 4.57 0 0 1 1.01 3.12z"/>
  </svg>

  <svg xmlns="http://www.w3.org/2000/svg" viewBox="0 0 24 24" id="pinterest">
    <title>Pinterest icon</title>
    <path d="M12 0a12 12 0 00-4.4 23.1c0-.9-.2-2.4 0-3.4l1.5-6s-.4-.7-.4-1.7c0-1.7 1-3 2.2-3 1 0 1.5.8 1.5 1.7 0 1-.6 2.6-1 4-.3 1.2.6 2.2 1.8 2.2 2.1 0 3.8-2.2 3.8-5.5 0-2.8-2-4.9-5-4.9a5.2 5.2 0 00-5.4 5.2c0 1 .3 2.2.8 2.8.1.1.2.2.1.3l-.3 1.4c0 .2-.2.3-.4.2-1.5-.7-2.4-3-2.4-4.7C4.4 8 7 4.5 12.3 4.5c4.1 0 7.4 3 7.4 6.9 0 4.1-2.6 7.4-6.3 7.4-1.2 0-2.3-.6-2.7-1.3l-.8 2.8c-.2 1-1 2.4-1.5 3.2A12 12 0 0024 12 12 12 0 0012 0z"/>
  </svg>

  <svg xmlns="http://www.w3.org/2000/svg" viewBox="0 0 24 24" id="telegram">
    <title>Telegram icon</title>
    <path d="M24 3.8l-3.7 17c-.3 1.2-1 1.5-2 1l-5.5-4-2.7 2.5c-.3.3-.5.5-1 .5-.8 0-.7-.2-.9-1l-1.9-6.1L.8 12c-1.1-.3-1.1-1.2.3-1.8l21.3-8.1c1-.5 1.9.2 1.5 1.7z"/>
  </svg>

  <svg xmlns="http://www.w3.org/2000/svg" viewBox="0 0 24 24" id="twitter">
    <title>Twitter icon</title>
    <path d="M24 4.6c-1 .4-1.9.6-2.9.7a5 5 0 002.2-2.7c-1 .6-2 1-3.1 1.2-1-1-2.2-1.6-3.6-1.6a5 5 0 00-4.8 6 14 14 0 01-10.2-5c-.4.7-.6 1.5-.6 2.4a5 5 0 002.2 4.1c-.8 0-1.6-.2-2.3-.6A5 5 0 005 14a5 5 0 01-2.2 0 5 5 0 004.6 3.5 9.9 9.9 0 01-7.3 2 14 14 0 007.6 2.3c9 0 14-7.5 14-14V7A10 10 0 0024 4.6z"/>
  </svg>

  <svg xmlns="http://www.w3.org/2000/svg" viewBox="0 0 24 24" id="rss">
    <title>RSS icon</title>
    <path d="M19.2 24C19.2 13.5 10.5 4.8 0 4.8V0c13.2 0 24 10.8 24 24h-4.8zm-16-6.6a3.3 3.3 0 110 6.6 3.3 3.3 0 010-6.6zM16 24h-4.7c0-6.2-5-11.2-11.2-11.2V8A16 16 0 0116 24z"/>
  </svg>
</svg>
